<svg xmlns="http://www.w3.org/2000/svg" width="100%" height="100%" viewBox="0 0 240 100">
<g id="module-oauth2">
<path class="module-icon" fill="currentColor" d="M19 2a3 3 0 1 1 0 6a3 3 0 0 1-1.523-.419l-2.896 2.896a2.98 2.98 0 0 1 0 3.044l2.896 2.897A3 3 0 0 1 19 16a3 3 0 1 1-2.583 1.479l-2.897-2.897a2.98 2.98 0 0 1-3.043 0L7.58 17.476c.264.447.419.966.419 1.523a3 3 0 1 1-3-3c.556 0 1.074.154 1.52.417l2.897-2.898a2.98 2.98 0 0 1 0-3.04L6.521 7.582A3 3 0 0 1 5 8a3 3 0 1 1 3-3a3 3 0 0 1-.419 1.521l2.896 2.897a2.98 2.98 0 0 1 3.043-.001l2.897-2.896A3 3 0 0 1 16 5a3 3 0 0 1 3-3"></path>
<text class="module-name" x="120px" y="50px" fill="currentColor">
<tspan><![CDATA[OAUTH2]]></tspan></text></g>
</svg>