<svg xmlns="http://www.w3.org/2000/svg" width="1rem" height="1rem" viewBox="0 0 64 64">
  <path data-name="layer2"
  fill="#f7931e" d="M29.1 6.4v54.5l9.7-4.5V1.7l-9.7 4.7z"></path>
  <path data-name="layer1" fill="#b2b2b2" d="M62.7 22.4L64 36.3l-18.7-4.1"></path>
  <path data-name="layer1" d="M40.5 19.6v6.2a29.54 29.54 0 0 1 10.6 3.8l6.9-4.2a43.585 43.585 0 0 0-17.5-5.8M9.7 40.2c0-6.9 7.5-12.7 17.7-14.4v-6.2C11.8 21.5 0 30 0 40.2 0 50.8 12.6 59.5 29.1 61v-6.1C18 53.5 9.7 47.4 9.7 40.2"
  fill="#b2b2b2"></path>
  <path data-name="layer1" d="M40.5 19.6v6.2a29.54 29.54 0 0 1 10.6 3.8l6.9-4.2a43.585 43.585 0 0 0-17.5-5.8M9.7 40.2c0-6.9 7.5-12.7 17.7-14.4v-6.2C11.8 21.5 0 30 0 40.2 0 50.8 12.6 59.5 29.1 61v-6.1C18 53.5 9.7 47.4 9.7 40.2"
  fill="#b2b2b2"></path>
</svg>